<svg width="164" height="74" viewBox="0 0 164 74" fill="none" xmlns="http://www.w3.org/2000/svg">
<g filter="url(#filter0_d_1101_152)">
<rect x="92" y="26" width="44" height="18" rx="9" fill="#38D1BC"/>
</g>
<path d="M103.577 33.8189C103.549 33.5324 103.427 33.3099 103.212 33.1513C102.996 32.9927 102.704 32.9134 102.335 32.9134C102.084 32.9134 101.872 32.9489 101.699 33.0199C101.526 33.0885 101.393 33.1844 101.301 33.3075C101.211 33.4306 101.166 33.5703 101.166 33.7266C101.161 33.8568 101.189 33.9704 101.248 34.0675C101.309 34.1645 101.393 34.2486 101.5 34.3196C101.607 34.3883 101.73 34.4486 101.869 34.5007C102.009 34.5504 102.158 34.593 102.317 34.6286L102.97 34.7848C103.287 34.8558 103.579 34.9505 103.844 35.0689C104.109 35.1873 104.339 35.3329 104.533 35.5057C104.727 35.6785 104.877 35.8821 104.984 36.1165C105.093 36.3509 105.148 36.6196 105.151 36.9226C105.148 37.3677 105.035 37.7536 104.81 38.0803C104.587 38.4046 104.265 38.6567 103.844 38.8366C103.425 39.0142 102.919 39.103 102.327 39.103C101.74 39.103 101.229 39.013 100.793 38.8331C100.36 38.6532 100.022 38.3868 99.7777 38.0341C99.5362 37.679 99.4096 37.2398 99.3977 36.7166H100.886C100.902 36.9605 100.972 37.1641 101.095 37.3274C101.221 37.4884 101.388 37.6103 101.596 37.6932C101.807 37.7737 102.045 37.8139 102.31 37.8139C102.57 37.8139 102.796 37.776 102.988 37.7003C103.182 37.6245 103.332 37.5192 103.439 37.3842C103.545 37.2493 103.599 37.0942 103.599 36.919C103.599 36.7557 103.55 36.6184 103.453 36.5071C103.358 36.3958 103.219 36.3011 103.034 36.223C102.852 36.1449 102.628 36.0739 102.363 36.0099L101.571 35.8111C100.958 35.6619 100.474 35.4287 100.119 35.1115C99.7635 34.7943 99.5871 34.367 99.5895 33.8295C99.5871 33.3892 99.7043 33.0045 99.9411 32.6754C100.18 32.3464 100.508 32.0895 100.925 31.9048C101.341 31.7202 101.815 31.6278 102.345 31.6278C102.885 31.6278 103.356 31.7202 103.759 31.9048C104.163 32.0895 104.478 32.3464 104.703 32.6754C104.928 33.0045 105.044 33.3857 105.051 33.8189H103.577ZM112.868 35.3636C112.868 36.1567 112.718 36.8314 112.417 37.3878C112.119 37.9441 111.712 38.3691 111.195 38.6626C110.682 38.9538 110.104 39.0994 109.463 39.0994C108.816 39.0994 108.236 38.9527 107.722 38.6591C107.209 38.3655 106.803 37.9406 106.504 37.3842C106.206 36.8279 106.057 36.1544 106.057 35.3636C106.057 34.5705 106.206 33.8958 106.504 33.3395C106.803 32.7831 107.209 32.3594 107.722 32.0682C108.236 31.7746 108.816 31.6278 109.463 31.6278C110.104 31.6278 110.682 31.7746 111.195 32.0682C111.712 32.3594 112.119 32.7831 112.417 33.3395C112.718 33.8958 112.868 34.5705 112.868 35.3636ZM111.309 35.3636C111.309 34.8499 111.232 34.4167 111.078 34.0639C110.927 33.7112 110.713 33.4437 110.436 33.2614C110.159 33.0791 109.834 32.9879 109.463 32.9879C109.091 32.9879 108.767 33.0791 108.49 33.2614C108.213 33.4437 107.997 33.7112 107.843 34.0639C107.692 34.4167 107.616 34.8499 107.616 35.3636C107.616 35.8774 107.692 36.3106 107.843 36.6634C107.997 37.0161 108.213 37.2836 108.49 37.4659C108.767 37.6482 109.091 37.7393 109.463 37.7393C109.834 37.7393 110.159 37.6482 110.436 37.4659C110.713 37.2836 110.927 37.0161 111.078 36.6634C111.232 36.3106 111.309 35.8774 111.309 35.3636ZM120.69 35.3636C120.69 36.1567 120.54 36.8314 120.239 37.3878C119.941 37.9441 119.534 38.3691 119.018 38.6626C118.504 38.9538 117.926 39.0994 117.285 39.0994C116.638 39.0994 116.058 38.9527 115.545 38.6591C115.031 38.3655 114.625 37.9406 114.327 37.3842C114.028 36.8279 113.879 36.1544 113.879 35.3636C113.879 34.5705 114.028 33.8958 114.327 33.3395C114.625 32.7831 115.031 32.3594 115.545 32.0682C116.058 31.7746 116.638 31.6278 117.285 31.6278C117.926 31.6278 118.504 31.7746 119.018 32.0682C119.534 32.3594 119.941 32.7831 120.239 33.3395C120.54 33.8958 120.69 34.5705 120.69 35.3636ZM119.131 35.3636C119.131 34.8499 119.054 34.4167 118.901 34.0639C118.749 33.7112 118.535 33.4437 118.258 33.2614C117.981 33.0791 117.656 32.9879 117.285 32.9879C116.913 32.9879 116.589 33.0791 116.312 33.2614C116.035 33.4437 115.819 33.7112 115.665 34.0639C115.514 34.4167 115.438 34.8499 115.438 35.3636C115.438 35.8774 115.514 36.3106 115.665 36.6634C115.819 37.0161 116.035 37.2836 116.312 37.4659C116.589 37.6482 116.913 37.7393 117.285 37.7393C117.656 37.7393 117.981 37.6482 118.258 37.4659C118.535 37.2836 118.749 37.0161 118.901 36.6634C119.054 36.3106 119.131 35.8774 119.131 35.3636ZM127.912 31.7273V39H126.584L123.42 34.4226H123.367V39H121.829V31.7273H123.179L126.318 36.3011H126.382V31.7273H127.912Z" fill="white"/>
<path d="M34.1378 42V28.9091H36.9055V34.6811H37.0781L41.7891 28.9091H45.1065L40.2486 34.7706L45.1641 42H41.853L38.267 36.6179L36.9055 38.2798V42H34.1378ZM46.5479 42V28.9091H51.7127C52.7013 28.9091 53.5451 29.0859 54.244 29.4396C54.9471 29.7891 55.4819 30.2855 55.8484 30.929C56.2191 31.5682 56.4045 32.3203 56.4045 33.1854C56.4045 34.0547 56.217 34.8026 55.842 35.429C55.467 36.0511 54.9237 36.5284 54.212 36.8608C53.5046 37.1932 52.6481 37.3594 51.6424 37.3594H48.1843V35.1349H51.195C51.7234 35.1349 52.1623 35.0625 52.5117 34.9176C52.8612 34.7727 53.1211 34.5554 53.2915 34.2656C53.4663 33.9759 53.5536 33.6158 53.5536 33.1854C53.5536 32.7507 53.4663 32.3842 53.2915 32.0859C53.1211 31.7876 52.859 31.5618 52.5053 31.4084C52.1559 31.2507 51.7148 31.1719 51.1822 31.1719H49.3157V42H46.5479ZM53.6175 36.0426L56.8711 42H53.8157L50.6325 36.0426H53.6175ZM58.3604 42V28.9091H63.5252C64.5138 28.9091 65.3576 29.0859 66.0565 29.4396C66.7596 29.7891 67.2944 30.2855 67.6609 30.929C68.0316 31.5682 68.217 32.3203 68.217 33.1854C68.217 34.0547 68.0295 34.8026 67.6545 35.429C67.2795 36.0511 66.7362 36.5284 66.0245 36.8608C65.3171 37.1932 64.4606 37.3594 63.4549 37.3594H59.9968V35.1349H63.0075C63.5359 35.1349 63.9748 35.0625 64.3242 34.9176C64.6737 34.7727 64.9336 34.5554 65.104 34.2656C65.2788 33.9759 65.3661 33.6158 65.3661 33.1854C65.3661 32.7507 65.2788 32.3842 65.104 32.0859C64.9336 31.7876 64.6715 31.5618 64.3178 31.4084C63.9684 31.2507 63.5273 31.1719 62.9947 31.1719H61.1282V42H58.3604ZM65.43 36.0426L68.6836 42H65.6282L62.445 36.0426H65.43ZM72.7681 28.9091L75.408 33.3707H75.5103L78.163 28.9091H81.2887L77.2937 35.4545L81.3782 42H78.195L75.5103 37.532H75.408L72.7234 42H69.5529L73.6502 35.4545L69.6296 28.9091H72.7681Z" fill="white"/>
<circle cx="12.5" cy="35.5" r="12.5" fill="#060B2D"/>
<path d="M17.4323 39.1976L15.9408 37.7133L14.7129 38.9406L16.1979 40.4249H14.3271V42.1663H19.1681V37.3213H17.4323V39.1976Z" fill="url(#paint0_linear_1101_152)"/>
<path d="M14.3271 30.5744H16.1979L14.7129 32.0587L15.9408 33.286L17.4323 31.8017V33.678H19.1681V28.833H14.3271V30.5744Z" fill="url(#paint1_linear_1101_152)"/>
<path d="M5.83496 33.6789H7.57073V31.8026L9.05578 33.287L10.2901 32.0597L8.80506 30.5753H10.6758V28.834H5.83496V33.6789Z" fill="url(#paint2_linear_1101_152)"/>
<path d="M10.2901 38.9406L9.05579 37.7133L7.57073 39.1976V37.3213H5.83496V42.1663H10.6758V40.4249H8.80506L10.2901 38.9406Z" fill="url(#paint3_linear_1101_152)"/>
<path d="M12.504 37.9515L10.7425 36.1973H8.28027L12.504 40.4125L16.7213 36.1973H14.2655L12.504 37.9515Z" fill="white"/>
<path d="M8.28027 34.8032H10.7425L12.504 33.0489L14.2655 34.8032H16.7213L12.504 30.5879L8.28027 34.8032Z" fill="white"/>
<path d="M13.7158 40.4248H11.2793V42.1662H13.7158V40.4248Z" fill="white"/>
<path d="M13.7158 28.833H11.2793V30.5744H13.7158V28.833Z" fill="white"/>
<defs>
<filter id="filter0_d_1101_152" x="64" y="0" width="100" height="74" filterUnits="userSpaceOnUse" color-interpolation-filters="sRGB">
<feFlood flood-opacity="0" result="BackgroundImageFix"/>
<feColorMatrix in="SourceAlpha" type="matrix" values="0 0 0 0 0 0 0 0 0 0 0 0 0 0 0 0 0 0 127 0" result="hardAlpha"/>
<feOffset dy="2"/>
<feGaussianBlur stdDeviation="14"/>
<feColorMatrix type="matrix" values="0 0 0 0 0.215686 0 0 0 0 0.317647 0 0 0 0 1 0 0 0 0.16 0"/>
<feBlend mode="normal" in2="BackgroundImageFix" result="effect1_dropShadow_1101_152"/>
<feBlend mode="normal" in="SourceGraphic" in2="effect1_dropShadow_1101_152" result="shape"/>
</filter>
<linearGradient id="paint0_linear_1101_152" x1="16.7474" y1="42.1651" x2="16.7474" y2="37.3232" gradientUnits="userSpaceOnUse">
<stop stop-color="#00A171"/>
<stop offset="0.6034" stop-color="#009B33"/>
<stop offset="1" stop-color="#009D32"/>
</linearGradient>
<linearGradient id="paint1_linear_1101_152" x1="16.7474" y1="33.6758" x2="16.7474" y2="28.8338" gradientUnits="userSpaceOnUse">
<stop stop-color="#00A171"/>
<stop offset="0.6034" stop-color="#009B33"/>
<stop offset="1" stop-color="#009D32"/>
</linearGradient>
<linearGradient id="paint2_linear_1101_152" x1="8.25422" y1="33.6768" x2="8.25422" y2="28.8348" gradientUnits="userSpaceOnUse">
<stop stop-color="#00A171"/>
<stop offset="0.6034" stop-color="#009B33"/>
<stop offset="1" stop-color="#009D32"/>
</linearGradient>
<linearGradient id="paint3_linear_1101_152" x1="8.25422" y1="42.1651" x2="8.25422" y2="37.3232" gradientUnits="userSpaceOnUse">
<stop stop-color="#00A171"/>
<stop offset="0.6034" stop-color="#009B33"/>
<stop offset="1" stop-color="#009D32"/>
</linearGradient>
</defs>
</svg>
